<svg width="32" height="33" viewBox="0 0 32 33" fill="none" xmlns="http://www.w3.org/2000/svg">
<g id="share-social-outline">
<path id="Vector" d="M8 19.4189C9.65685 19.4189 11 18.0758 11 16.4189C11 14.7621 9.65685 13.4189 8 13.4189C6.34315 13.4189 5 14.7621 5 16.4189C5 18.0758 6.34315 19.4189 8 19.4189Z" stroke="#E5A700" stroke-width="2" stroke-linecap="round" stroke-linejoin="round"/>
<path id="Vector_2" d="M24 10.4189C25.6569 10.4189 27 9.0758 27 7.41895C27 5.76209 25.6569 4.41895 24 4.41895C22.3431 4.41895 21 5.76209 21 7.41895C21 9.0758 22.3431 10.4189 24 10.4189Z" stroke="#E5A700" stroke-width="2" stroke-linecap="round" stroke-linejoin="round"/>
<path id="Vector_3" d="M24 28.4189C25.6569 28.4189 27 27.0758 27 25.4189C27 23.7621 25.6569 22.4189 24 22.4189C22.3431 22.4189 21 23.7621 21 25.4189C21 27.0758 22.3431 28.4189 24 28.4189Z" stroke="#E5A700" stroke-width="2" stroke-linecap="round" stroke-linejoin="round"/>
<path id="Vector_4" d="M10.6143 17.8896L21.3855 23.9484M21.3855 8.88965L10.6143 14.9484" stroke="#E5A700" stroke-width="2" stroke-linecap="round" stroke-linejoin="round"/>
</g>
</svg>
