<svg width="24" height="25" viewBox="0 0 24 25" fill="none" xmlns="http://www.w3.org/2000/svg">
<g id="location-outline">
<path id="Vector" d="M12 2.66895C8.27344 2.66895 5.25 5.5466 5.25 9.09082C5.25 13.1689 9.75 19.6316 11.4023 21.8638C11.4709 21.958 11.5608 22.0347 11.6647 22.0876C11.7686 22.1404 11.8835 22.168 12 22.168C12.1165 22.168 12.2314 22.1404 12.3353 22.0876C12.4392 22.0347 12.5291 21.958 12.5977 21.8638C14.25 19.6325 18.75 13.1722 18.75 9.09082C18.75 5.5466 15.7266 2.66895 12 2.66895Z" stroke="#FF5E5B" stroke-width="1.5" stroke-linecap="round" stroke-linejoin="round"/>
<path id="Vector_2" d="M12 11.6689C13.2426 11.6689 14.25 10.6616 14.25 9.41895C14.25 8.1763 13.2426 7.16895 12 7.16895C10.7574 7.16895 9.75 8.1763 9.75 9.41895C9.75 10.6616 10.7574 11.6689 12 11.6689Z" stroke="#FF5E5B" stroke-width="1.5" stroke-linecap="round" stroke-linejoin="round"/>
</g>
</svg>
